<mxfile host="app.diagrams.net" agent="Mozilla/5.0 (Windows NT 10.0; Win64; x64) AppleWebKit/537.36 (KHTML, like Gecko) Chrome/130.0.0.0 Safari/537.36 Edg/130.0.0.0" version="26.2.6">
  <diagram id="C5RBs43oDa-KdzZeNtuy" name="Page-1">
    <mxGraphModel dx="1207" dy="741" grid="1" gridSize="10" guides="1" tooltips="1" connect="1" arrows="1" fold="1" page="1" pageScale="1" pageWidth="827" pageHeight="1169" background="none" math="1" shadow="0">
      <root>
        <mxCell id="WIyWlLk6GJQsqaUBKTNV-0" />
        <mxCell id="WIyWlLk6GJQsqaUBKTNV-1" parent="WIyWlLk6GJQsqaUBKTNV-0" />
        <mxCell id="54ulJrPKZDDIkLWZrO97-37" style="edgeStyle=orthogonalEdgeStyle;rounded=0;orthogonalLoop=1;jettySize=auto;html=1;exitX=0.5;exitY=1;exitDx=0;exitDy=0;entryX=0.5;entryY=0;entryDx=0;entryDy=0;labelBackgroundColor=none;strokeColor=#A8201A;fontColor=default;" edge="1" parent="WIyWlLk6GJQsqaUBKTNV-1" source="WIyWlLk6GJQsqaUBKTNV-3" target="54ulJrPKZDDIkLWZrO97-1">
          <mxGeometry relative="1" as="geometry" />
        </mxCell>
        <mxCell id="WIyWlLk6GJQsqaUBKTNV-3" value="&lt;font style=&quot;font-size: 14px;&quot; face=&quot;宋体&quot;&gt;开始&lt;/font&gt;" style="rounded=1;whiteSpace=wrap;html=1;fontSize=12;glass=0;strokeWidth=1;shadow=0;labelBackgroundColor=none;fillColor=#FAE5C7;strokeColor=#0F8B8D;fontColor=#143642;" parent="WIyWlLk6GJQsqaUBKTNV-1" vertex="1">
          <mxGeometry x="270" y="20" width="120" height="40" as="geometry" />
        </mxCell>
        <mxCell id="54ulJrPKZDDIkLWZrO97-39" value="" style="edgeStyle=orthogonalEdgeStyle;rounded=0;orthogonalLoop=1;jettySize=auto;html=1;labelBackgroundColor=none;strokeColor=#A8201A;fontColor=default;" edge="1" parent="WIyWlLk6GJQsqaUBKTNV-1" source="54ulJrPKZDDIkLWZrO97-1" target="54ulJrPKZDDIkLWZrO97-38">
          <mxGeometry relative="1" as="geometry" />
        </mxCell>
        <mxCell id="54ulJrPKZDDIkLWZrO97-1" value="&lt;font style=&quot;font-size: 14px;&quot; face=&quot;宋体&quot;&gt;初始化Q表&lt;/font&gt;" style="rounded=0;whiteSpace=wrap;html=1;labelBackgroundColor=none;fillColor=#FAE5C7;strokeColor=#0F8B8D;fontColor=#143642;" vertex="1" parent="WIyWlLk6GJQsqaUBKTNV-1">
          <mxGeometry x="270" y="90" width="120" height="60" as="geometry" />
        </mxCell>
        <mxCell id="54ulJrPKZDDIkLWZrO97-5" value="" style="edgeStyle=orthogonalEdgeStyle;rounded=0;orthogonalLoop=1;jettySize=auto;html=1;labelBackgroundColor=none;strokeColor=#A8201A;fontColor=default;" edge="1" parent="WIyWlLk6GJQsqaUBKTNV-1" source="54ulJrPKZDDIkLWZrO97-2" target="54ulJrPKZDDIkLWZrO97-4">
          <mxGeometry relative="1" as="geometry" />
        </mxCell>
        <mxCell id="54ulJrPKZDDIkLWZrO97-2" value="&lt;font style=&quot;font-size: 14px;&quot; face=&quot;宋体&quot;&gt;观测当前状态&lt;/font&gt;" style="whiteSpace=wrap;html=1;rounded=0;labelBackgroundColor=none;fillColor=#FAE5C7;strokeColor=#0F8B8D;fontColor=#143642;" vertex="1" parent="WIyWlLk6GJQsqaUBKTNV-1">
          <mxGeometry x="270" y="270" width="120" height="60" as="geometry" />
        </mxCell>
        <mxCell id="54ulJrPKZDDIkLWZrO97-46" style="edgeStyle=orthogonalEdgeStyle;rounded=0;orthogonalLoop=1;jettySize=auto;html=1;entryX=0.5;entryY=0;entryDx=0;entryDy=0;strokeColor=#A8201A;fontColor=#143642;fillColor=#FAE5C7;" edge="1" parent="WIyWlLk6GJQsqaUBKTNV-1" source="54ulJrPKZDDIkLWZrO97-4" target="54ulJrPKZDDIkLWZrO97-8">
          <mxGeometry relative="1" as="geometry" />
        </mxCell>
        <mxCell id="54ulJrPKZDDIkLWZrO97-47" style="edgeStyle=orthogonalEdgeStyle;rounded=0;orthogonalLoop=1;jettySize=auto;html=1;exitX=1;exitY=0.5;exitDx=0;exitDy=0;entryX=0.5;entryY=0;entryDx=0;entryDy=0;strokeColor=#A8201A;fontColor=#143642;fillColor=#FAE5C7;" edge="1" parent="WIyWlLk6GJQsqaUBKTNV-1" source="54ulJrPKZDDIkLWZrO97-4" target="54ulJrPKZDDIkLWZrO97-6">
          <mxGeometry relative="1" as="geometry" />
        </mxCell>
        <mxCell id="54ulJrPKZDDIkLWZrO97-4" value="&lt;font style=&quot;font-size: 14px;&quot; face=&quot;宋体&quot;&gt;决策探索/利用&lt;/font&gt;" style="rhombus;whiteSpace=wrap;html=1;rounded=0;labelBackgroundColor=none;fillColor=#FAE5C7;strokeColor=#0F8B8D;fontColor=#143642;" vertex="1" parent="WIyWlLk6GJQsqaUBKTNV-1">
          <mxGeometry x="255" y="360" width="150" height="80" as="geometry" />
        </mxCell>
        <mxCell id="54ulJrPKZDDIkLWZrO97-50" style="edgeStyle=orthogonalEdgeStyle;rounded=0;orthogonalLoop=1;jettySize=auto;html=1;entryX=1;entryY=0.5;entryDx=0;entryDy=0;strokeColor=#A8201A;fontColor=#143642;fillColor=#FAE5C7;" edge="1" parent="WIyWlLk6GJQsqaUBKTNV-1" source="54ulJrPKZDDIkLWZrO97-6" target="54ulJrPKZDDIkLWZrO97-26">
          <mxGeometry relative="1" as="geometry">
            <Array as="points">
              <mxPoint x="480" y="560" />
            </Array>
          </mxGeometry>
        </mxCell>
        <mxCell id="54ulJrPKZDDIkLWZrO97-6" value="&lt;font face=&quot;宋体&quot; style=&quot;font-size: 14px;&quot;&gt;探索：随机动作&lt;/font&gt;" style="whiteSpace=wrap;html=1;rounded=0;labelBackgroundColor=none;fillColor=#FAE5C7;strokeColor=#0F8B8D;fontColor=#143642;" vertex="1" parent="WIyWlLk6GJQsqaUBKTNV-1">
          <mxGeometry x="420" y="450" width="120" height="60" as="geometry" />
        </mxCell>
        <mxCell id="54ulJrPKZDDIkLWZrO97-51" style="edgeStyle=orthogonalEdgeStyle;rounded=0;orthogonalLoop=1;jettySize=auto;html=1;entryX=0;entryY=0.5;entryDx=0;entryDy=0;strokeColor=#A8201A;fontColor=#143642;fillColor=#FAE5C7;" edge="1" parent="WIyWlLk6GJQsqaUBKTNV-1" source="54ulJrPKZDDIkLWZrO97-8" target="54ulJrPKZDDIkLWZrO97-26">
          <mxGeometry relative="1" as="geometry">
            <Array as="points">
              <mxPoint x="180" y="560" />
            </Array>
          </mxGeometry>
        </mxCell>
        <mxCell id="54ulJrPKZDDIkLWZrO97-8" value="&lt;font style=&quot;font-size: 14px;&quot; face=&quot;宋体&quot;&gt;利用：最优动作&lt;/font&gt;" style="rounded=0;whiteSpace=wrap;html=1;labelBackgroundColor=none;fillColor=#FAE5C7;strokeColor=#0F8B8D;fontColor=#143642;" vertex="1" parent="WIyWlLk6GJQsqaUBKTNV-1">
          <mxGeometry x="120" y="440" width="120" height="60" as="geometry" />
        </mxCell>
        <mxCell id="54ulJrPKZDDIkLWZrO97-31" value="" style="edgeStyle=orthogonalEdgeStyle;rounded=0;orthogonalLoop=1;jettySize=auto;html=1;labelBackgroundColor=none;strokeColor=#A8201A;fontColor=default;" edge="1" parent="WIyWlLk6GJQsqaUBKTNV-1" source="54ulJrPKZDDIkLWZrO97-26" target="54ulJrPKZDDIkLWZrO97-30">
          <mxGeometry relative="1" as="geometry" />
        </mxCell>
        <mxCell id="54ulJrPKZDDIkLWZrO97-26" value="&lt;font style=&quot;font-size: 14px;&quot; face=&quot;宋体&quot;&gt;奖励计算&lt;/font&gt;" style="whiteSpace=wrap;html=1;rounded=0;labelBackgroundColor=none;fillColor=#FAE5C7;strokeColor=#0F8B8D;fontColor=#143642;" vertex="1" parent="WIyWlLk6GJQsqaUBKTNV-1">
          <mxGeometry x="270" y="530" width="120" height="60" as="geometry" />
        </mxCell>
        <mxCell id="54ulJrPKZDDIkLWZrO97-33" value="" style="edgeStyle=orthogonalEdgeStyle;rounded=0;orthogonalLoop=1;jettySize=auto;html=1;labelBackgroundColor=none;strokeColor=#A8201A;fontColor=default;" edge="1" parent="WIyWlLk6GJQsqaUBKTNV-1" source="54ulJrPKZDDIkLWZrO97-30" target="54ulJrPKZDDIkLWZrO97-32">
          <mxGeometry relative="1" as="geometry" />
        </mxCell>
        <mxCell id="54ulJrPKZDDIkLWZrO97-30" value="&lt;font style=&quot;font-size: 14px;&quot; face=&quot;宋体&quot;&gt;Q表更新&lt;/font&gt;" style="whiteSpace=wrap;html=1;rounded=0;labelBackgroundColor=none;fillColor=#FAE5C7;strokeColor=#0F8B8D;fontColor=#143642;" vertex="1" parent="WIyWlLk6GJQsqaUBKTNV-1">
          <mxGeometry x="270" y="620" width="120" height="60" as="geometry" />
        </mxCell>
        <mxCell id="54ulJrPKZDDIkLWZrO97-35" value="" style="edgeStyle=orthogonalEdgeStyle;rounded=0;orthogonalLoop=1;jettySize=auto;html=1;labelBackgroundColor=none;strokeColor=#A8201A;fontColor=default;" edge="1" parent="WIyWlLk6GJQsqaUBKTNV-1" source="54ulJrPKZDDIkLWZrO97-32" target="54ulJrPKZDDIkLWZrO97-34">
          <mxGeometry relative="1" as="geometry" />
        </mxCell>
        <mxCell id="54ulJrPKZDDIkLWZrO97-41" style="edgeStyle=orthogonalEdgeStyle;rounded=0;orthogonalLoop=1;jettySize=auto;html=1;entryX=1;entryY=0.5;entryDx=0;entryDy=0;labelBackgroundColor=none;strokeColor=#A8201A;fontColor=default;" edge="1" parent="WIyWlLk6GJQsqaUBKTNV-1" source="54ulJrPKZDDIkLWZrO97-32" target="54ulJrPKZDDIkLWZrO97-38">
          <mxGeometry relative="1" as="geometry">
            <Array as="points">
              <mxPoint x="650" y="750" />
              <mxPoint x="650" y="210" />
            </Array>
          </mxGeometry>
        </mxCell>
        <mxCell id="54ulJrPKZDDIkLWZrO97-32" value="&lt;div style=&quot;text-align: left;&quot;&gt;&lt;font style=&quot;font-size: 14px;&quot; face=&quot;宋体&quot;&gt;$$t&amp;lt;T?$$&lt;/font&gt;&lt;/div&gt;" style="rhombus;whiteSpace=wrap;html=1;rounded=0;labelBackgroundColor=none;fillColor=#FAE5C7;strokeColor=#0F8B8D;fontColor=#143642;" vertex="1" parent="WIyWlLk6GJQsqaUBKTNV-1">
          <mxGeometry x="255" y="710" width="150" height="80" as="geometry" />
        </mxCell>
        <mxCell id="54ulJrPKZDDIkLWZrO97-34" value="&lt;font face=&quot;宋体&quot; style=&quot;font-size: 14px;&quot;&gt;结束&lt;/font&gt;" style="rounded=1;whiteSpace=wrap;html=1;labelBackgroundColor=none;fillColor=#FAE5C7;strokeColor=#0F8B8D;fontColor=#143642;" vertex="1" parent="WIyWlLk6GJQsqaUBKTNV-1">
          <mxGeometry x="270" y="820" width="120" height="60" as="geometry" />
        </mxCell>
        <mxCell id="54ulJrPKZDDIkLWZrO97-40" value="" style="edgeStyle=orthogonalEdgeStyle;rounded=0;orthogonalLoop=1;jettySize=auto;html=1;labelBackgroundColor=none;strokeColor=#A8201A;fontColor=default;" edge="1" parent="WIyWlLk6GJQsqaUBKTNV-1" source="54ulJrPKZDDIkLWZrO97-38" target="54ulJrPKZDDIkLWZrO97-2">
          <mxGeometry relative="1" as="geometry" />
        </mxCell>
        <mxCell id="54ulJrPKZDDIkLWZrO97-38" value="&lt;font style=&quot;font-size: 14px;&quot; face=&quot;宋体&quot;&gt;$$t=t+1$$&lt;/font&gt;" style="whiteSpace=wrap;html=1;rounded=0;labelBackgroundColor=none;fillColor=#FAE5C7;strokeColor=#0F8B8D;fontColor=#143642;" vertex="1" parent="WIyWlLk6GJQsqaUBKTNV-1">
          <mxGeometry x="270" y="180" width="120" height="60" as="geometry" />
        </mxCell>
        <mxCell id="54ulJrPKZDDIkLWZrO97-44" value="&lt;font style=&quot;font-size: 14px;&quot; face=&quot;宋体&quot;&gt;$$1-\epsilon$$&lt;/font&gt;" style="text;whiteSpace=wrap;html=1;fontColor=#143642;" vertex="1" parent="WIyWlLk6GJQsqaUBKTNV-1">
          <mxGeometry x="190" y="360" width="100" height="20" as="geometry" />
        </mxCell>
        <mxCell id="54ulJrPKZDDIkLWZrO97-52" value="&lt;font style=&quot;font-size: 14px;&quot; face=&quot;宋体&quot;&gt;$$\epsilon$$&lt;/font&gt;" style="text;whiteSpace=wrap;html=1;fontColor=#143642;" vertex="1" parent="WIyWlLk6GJQsqaUBKTNV-1">
          <mxGeometry x="440" y="360" width="100" height="20" as="geometry" />
        </mxCell>
        <mxCell id="54ulJrPKZDDIkLWZrO97-53" value="&lt;font face=&quot;宋体&quot;&gt;&lt;span style=&quot;font-size: 14px;&quot;&gt;是&lt;/span&gt;&lt;/font&gt;" style="text;whiteSpace=wrap;html=1;fontColor=#143642;" vertex="1" parent="WIyWlLk6GJQsqaUBKTNV-1">
          <mxGeometry x="420" y="720" width="100" height="20" as="geometry" />
        </mxCell>
        <mxCell id="54ulJrPKZDDIkLWZrO97-56" value="&lt;font face=&quot;宋体&quot;&gt;&lt;span style=&quot;font-size: 14px;&quot;&gt;否&lt;/span&gt;&lt;/font&gt;" style="text;whiteSpace=wrap;html=1;fontColor=#143642;" vertex="1" parent="WIyWlLk6GJQsqaUBKTNV-1">
          <mxGeometry x="340" y="790" width="100" height="20" as="geometry" />
        </mxCell>
      </root>
    </mxGraphModel>
  </diagram>
</mxfile>
